<svg width="99" height="27" viewBox="0 0 99 27" fill="none" xmlns="http://www.w3.org/2000/svg">
<mask id="mask0_39_24" style="mask-type:alpha" maskUnits="userSpaceOnUse" x="0" y="0" width="99" height="27">
<rect x="0.222656" width="98" height="27" fill="#D9D9D9"/>
</mask>
<g mask="url(#mask0_39_24)">
<path d="M16.8499 20.5C16.7418 20.5002 16.638 20.4576 16.5613 20.3814C16.4845 20.3053 16.4411 20.2019 16.4404 20.0937C16.4401 20.0405 16.4503 19.9878 16.4704 19.9386C16.4906 19.8893 16.5202 19.8445 16.5577 19.8068C16.5952 19.769 16.6398 19.7391 16.6889 19.7186C16.738 19.6981 16.7906 19.6875 16.8438 19.6875H16.8499C17.4355 19.6855 18.0009 19.4736 18.4436 19.0903C18.8862 18.707 19.1768 18.1778 19.2627 17.5986C19.278 17.4919 19.335 17.3957 19.4212 17.3311C19.5075 17.2665 19.6159 17.2388 19.7225 17.2541C19.8292 17.2694 19.9254 17.3264 19.99 17.4126C20.0546 17.4989 20.0823 17.6073 20.067 17.7139C19.9527 18.4863 19.5652 19.1922 18.9749 19.7033C18.3847 20.2145 17.6308 20.4971 16.8499 20.5Z" fill="white"/>
<path d="M19.1461 10.696C19.0821 10.6961 19.0191 10.6811 18.962 10.6522C18.905 10.6233 18.8556 10.5814 18.8178 10.5298C18.5908 10.221 18.2945 9.96974 17.9527 9.79631C17.6109 9.62287 17.2332 9.53209 16.8499 9.53125C16.7418 9.53147 16.638 9.48884 16.5613 9.4127C16.4845 9.33656 16.4411 9.23311 16.4404 9.125C16.4401 9.0718 16.4503 9.01906 16.4704 8.96981C16.4906 8.92057 16.5202 8.87578 16.5577 8.83803C16.5952 8.80028 16.6398 8.77031 16.6889 8.74984C16.738 8.72937 16.7906 8.7188 16.8438 8.71875C17.3557 8.71907 17.8604 8.83969 18.3171 9.07086C18.7738 9.30204 19.1698 9.6373 19.4731 10.0496C19.5173 10.11 19.544 10.1814 19.5502 10.256C19.5565 10.3305 19.542 10.4054 19.5083 10.4722C19.4747 10.5391 19.4233 10.5954 19.3597 10.6348C19.2962 10.6743 19.2229 10.6955 19.1481 10.696H19.1461Z" fill="white"/>
<path d="M16.8499 18.4687C16.7418 18.469 16.638 18.4263 16.5613 18.3502C16.4845 18.2741 16.4411 18.1706 16.4404 18.0625C16.4401 18.0093 16.4503 17.9566 16.4704 17.9073C16.4906 17.8581 16.5202 17.8133 16.5577 17.7755C16.5952 17.7378 16.6398 17.7078 16.6889 17.6873C16.738 17.6669 16.7906 17.6563 16.8438 17.6562H16.8499C16.916 17.6562 16.981 17.64 17.0394 17.6092C17.0978 17.5783 17.1478 17.5337 17.1851 17.4791C17.2463 17.3902 17.3403 17.3293 17.4464 17.3097C17.5526 17.2901 17.6621 17.3135 17.751 17.3747C17.8399 17.4359 17.9008 17.5299 17.9204 17.636C17.94 17.7422 17.9166 17.8517 17.8554 17.9406C17.7433 18.1037 17.5931 18.237 17.4179 18.329C17.2428 18.421 17.0478 18.469 16.8499 18.4687Z" fill="white"/>
<path d="M17.5207 11.9159C17.4546 11.916 17.3895 11.9 17.3311 11.8693C17.2726 11.8386 17.2225 11.7941 17.1851 11.7396C17.1478 11.6851 17.0978 11.6404 17.0394 11.6096C16.981 11.5787 16.916 11.5626 16.8499 11.5625C16.7418 11.5627 16.638 11.5201 16.5613 11.4439C16.4845 11.3678 16.4411 11.2644 16.4404 11.1563C16.4401 11.1031 16.4503 11.0503 16.4704 11.0011C16.4906 10.9518 16.5202 10.907 16.5577 10.8693C16.5952 10.8315 16.6398 10.8016 16.6889 10.7811C16.738 10.7606 16.7906 10.7501 16.8438 10.75C17.0427 10.749 17.2388 10.7966 17.4151 10.8886C17.5914 10.9806 17.7426 11.1144 17.8554 11.2781C17.9161 11.367 17.9391 11.4763 17.9193 11.5821C17.8995 11.6879 17.8385 11.7815 17.7498 11.8424C17.6827 11.8898 17.6028 11.9154 17.5207 11.9159Z" fill="white"/>
<path d="M19.4902 14H17.459C17.0819 14 16.7202 13.8502 16.4536 13.5835C16.1869 13.3169 16.0371 12.9552 16.0371 12.5781C16.0371 12.201 16.1869 11.8394 16.4536 11.5727C16.7202 11.3061 17.0819 11.1562 17.459 11.1562H18.7387C18.8464 11.1562 18.9497 11.1991 19.0259 11.2752C19.1021 11.3514 19.1449 11.4548 19.1449 11.5625C19.1449 11.6702 19.1021 11.7736 19.0259 11.8498C18.9497 11.9259 18.8464 11.9688 18.7387 11.9688H17.459C17.2974 11.9688 17.1424 12.033 17.0281 12.1472C16.9138 12.2615 16.8496 12.4165 16.8496 12.5781C16.8496 12.7397 16.9138 12.8947 17.0281 13.009C17.1424 13.1233 17.2974 13.1875 17.459 13.1875H19.4902C19.6519 13.1875 19.8068 13.1233 19.9211 13.009C20.0354 12.8947 20.0996 12.7397 20.0996 12.5781C20.0996 12.4704 20.1424 12.367 20.2186 12.2909C20.2948 12.2147 20.3981 12.1719 20.5059 12.1719C20.6136 12.1719 20.7169 12.2147 20.7931 12.2909C20.8693 12.367 20.9121 12.4704 20.9121 12.5781C20.9121 12.9552 20.7623 13.3169 20.4957 13.5835C20.229 13.8502 19.8673 14 19.4902 14Z" fill="white"/>
<path d="M19.4902 16.0312H17.459C17.0819 16.0312 16.7202 15.8814 16.4536 15.6148C16.1869 15.3481 16.0371 14.9865 16.0371 14.6094C16.0371 14.2323 16.1869 13.8706 16.4536 13.604C16.7202 13.3373 17.0819 13.1875 17.459 13.1875H19.4902C19.8673 13.1875 20.229 13.3373 20.4957 13.604C20.7623 13.8706 20.9121 14.2323 20.9121 14.6094C20.9121 14.9865 20.7623 15.3481 20.4957 15.6148C20.229 15.8814 19.8673 16.0312 19.4902 16.0312ZM17.459 14C17.2974 14 17.1424 14.0642 17.0281 14.1785C16.9138 14.2928 16.8496 14.4478 16.8496 14.6094C16.8496 14.771 16.9138 14.926 17.0281 15.0403C17.1424 15.1545 17.2974 15.2188 17.459 15.2188H19.4902C19.6519 15.2188 19.8068 15.1545 19.9211 15.0403C20.0354 14.926 20.0996 14.771 20.0996 14.6094C20.0996 14.4478 20.0354 14.2928 19.9211 14.1785C19.8068 14.0642 19.6519 14 19.4902 14H17.459Z" fill="white"/>
<path d="M19.4902 18.0625H17.459C17.0819 18.0625 16.7202 17.9127 16.4536 17.646C16.1869 17.3794 16.0371 17.0177 16.0371 16.6406C16.0371 16.2635 16.1869 15.9019 16.4536 15.6352C16.7202 15.3686 17.0819 15.2188 17.459 15.2188H19.4902C19.8673 15.2188 20.229 15.3686 20.4957 15.6352C20.7623 15.9019 20.9121 16.2635 20.9121 16.6406C20.9121 17.0177 20.7623 17.3794 20.4957 17.646C20.229 17.9127 19.8673 18.0625 19.4902 18.0625ZM17.459 16.0312C17.2974 16.0312 17.1424 16.0955 17.0281 16.2097C16.9138 16.324 16.8496 16.479 16.8496 16.6406C16.8496 16.8022 16.9138 16.9572 17.0281 17.0715C17.1424 17.1858 17.2974 17.25 17.459 17.25H19.4902C19.6519 17.25 19.8068 17.1858 19.9211 17.0715C20.0354 16.9572 20.0996 16.8022 20.0996 16.6406C20.0996 16.479 20.0354 16.324 19.9211 16.2097C19.8068 16.0955 19.6519 16.0312 19.4902 16.0312H17.459Z" fill="white"/>
<path d="M23.208 18.875H19.5518C19.444 18.875 19.3407 18.8322 19.2645 18.756C19.1883 18.6798 19.1455 18.5765 19.1455 18.4688C19.1455 18.361 19.1883 18.2577 19.2645 18.1815C19.3407 18.1053 19.444 18.0625 19.5518 18.0625H23.208C23.4235 18.0625 23.6302 17.9769 23.7825 17.8245C23.9349 17.6722 24.0205 17.4655 24.0205 17.25C24.0205 17.1423 24.0633 17.0389 24.1395 16.9627C24.2157 16.8866 24.319 16.8438 24.4268 16.8438C24.5345 16.8438 24.6378 16.8866 24.714 16.9627C24.7902 17.0389 24.833 17.1423 24.833 17.25C24.833 17.681 24.6618 18.0943 24.3571 18.399C24.0523 18.7038 23.639 18.875 23.208 18.875Z" fill="white"/>
<path d="M24.4261 12.9714C24.3183 12.9714 24.215 12.9286 24.1388 12.8524C24.0626 12.7762 24.0198 12.6729 24.0198 12.5651C24.0202 12.4413 23.992 12.3191 23.9376 12.208C23.8831 12.0968 23.8038 11.9997 23.7058 11.9241L20.8828 9.73031C20.696 9.63231 20.4785 9.61075 20.2762 9.67018C20.0738 9.72962 19.9025 9.86539 19.7985 10.0488L19.3979 10.7557C19.3453 10.8485 19.3114 10.9508 19.2983 11.0567C19.2852 11.1626 19.2931 11.2701 19.3216 11.3729C19.35 11.4758 19.3984 11.572 19.464 11.6562C19.5296 11.7403 19.6112 11.8107 19.704 11.8633C19.7968 11.916 19.8991 11.9498 20.005 11.9629C20.1109 11.976 20.2184 11.9681 20.3212 11.9397C20.4241 11.9113 20.5203 11.8628 20.6045 11.7972C20.6886 11.7316 20.759 11.65 20.8117 11.5572C20.8374 11.5097 20.8723 11.4677 20.9144 11.4338C20.9565 11.4 21.005 11.3748 21.057 11.3599C21.1089 11.345 21.1633 11.3406 21.217 11.347C21.2707 11.3534 21.3226 11.3704 21.3696 11.3971C21.4166 11.4238 21.4578 11.4596 21.4908 11.5024C21.5238 11.5452 21.5479 11.5942 21.5618 11.6464C21.5756 11.6987 21.5789 11.7532 21.5714 11.8067C21.5639 11.8602 21.5458 11.9117 21.5181 11.9582C21.3055 12.3331 20.9526 12.6082 20.5372 12.7229C20.1217 12.8376 19.6777 12.7826 19.3028 12.57C18.9279 12.3574 18.6529 12.0045 18.5381 11.5891C18.4234 11.1736 18.4784 10.7296 18.691 10.3547L19.092 9.64825C19.3045 9.27338 19.6573 8.99829 20.0727 8.88347C20.488 8.76866 20.932 8.82354 21.3069 9.03603C21.3237 9.04592 21.34 9.05677 21.3556 9.06853L24.2047 11.2826C24.4007 11.434 24.5592 11.6284 24.6681 11.8509C24.7769 12.0733 24.8331 12.3179 24.8323 12.5655C24.8322 12.6732 24.7894 12.7764 24.7132 12.8525C24.637 12.9286 24.5337 12.9714 24.4261 12.9714Z" fill="white"/>
<path d="M25.6455 17.6562H24.4268C24.319 17.6562 24.2157 17.6134 24.1395 17.5373C24.0633 17.4611 24.0205 17.3577 24.0205 17.25C24.0205 17.1423 24.0633 17.0389 24.1395 16.9627C24.2157 16.8866 24.319 16.8438 24.4268 16.8438H25.6455C25.7533 16.8438 25.8566 16.8866 25.9328 16.9627C26.009 17.0389 26.0518 17.1423 26.0518 17.25C26.0518 17.3577 26.009 17.4611 25.9328 17.5373C25.8566 17.6134 25.7533 17.6562 25.6455 17.6562Z" fill="white"/>
<path d="M25.6455 13.1875H24.4268C24.319 13.1875 24.2157 13.1447 24.1395 13.0685C24.0633 12.9923 24.0205 12.889 24.0205 12.7812C24.0205 12.6735 24.0633 12.5702 24.1395 12.494C24.2157 12.4178 24.319 12.375 24.4268 12.375H25.6455C25.7533 12.375 25.8566 12.4178 25.9328 12.494C26.009 12.5702 26.0518 12.6735 26.0518 12.7812C26.0518 12.889 26.009 12.9923 25.9328 13.0685C25.8566 13.1447 25.7533 13.1875 25.6455 13.1875Z" fill="white"/>
<path d="M16.1255 23.009L15.6714 21.4197C15.6404 21.311 15.6247 21.1985 15.6246 21.0854V10.3438C15.6246 10.236 15.5818 10.1327 15.5057 10.0565C15.4295 9.9803 15.3261 9.9375 15.2184 9.9375H13.5934V10.3438C13.5934 10.5592 13.5078 10.7659 13.3554 10.9183C13.203 11.0706 12.9964 11.1562 12.7809 11.1562C12.5654 11.1562 12.3587 11.0706 12.2064 10.9183C12.054 10.7659 11.9684 10.5592 11.9684 10.3438V9.9375H3.03089C2.92315 9.9375 2.81982 9.9803 2.74363 10.0565C2.66744 10.1327 2.62464 10.236 2.62464 10.3438V21.085C2.62456 21.1983 2.60884 21.3111 2.57792 21.4202L2.13714 22.959C2.08716 23.1206 2.06976 23.2905 2.08594 23.4588C2.10212 23.6272 2.15156 23.7906 2.23139 23.9397C2.33686 24.1292 2.4912 24.2869 2.67833 24.3964C2.86546 24.5059 3.07853 24.5633 3.29536 24.5625H14.9019C15.0711 24.5663 15.2393 24.5363 15.3968 24.4745C15.5543 24.4126 15.6979 24.32 15.8192 24.2022C15.9722 24.0488 16.0814 23.8572 16.1352 23.6474C16.1891 23.4375 16.1858 23.2171 16.1255 23.009ZM6.28089 20.9062C6.28089 21.1217 6.19529 21.3284 6.04291 21.4808C5.89054 21.6331 5.68388 21.7188 5.46839 21.7188C5.2529 21.7188 5.04624 21.6331 4.89387 21.4808C4.74149 21.3284 4.65589 21.1217 4.65589 20.9062V13.5938C4.65589 13.3783 4.74149 13.1716 4.89387 13.0192C5.04624 12.8669 5.2529 12.7812 5.46839 12.7812C5.68388 12.7812 5.89054 12.8669 6.04291 13.0192C6.19529 13.1716 6.28089 13.3783 6.28089 13.5938V20.9062ZM9.93714 20.9062C9.93714 21.1217 9.85154 21.3284 9.69916 21.4808C9.54679 21.6331 9.34013 21.7188 9.12464 21.7188C8.90915 21.7188 8.70249 21.6331 8.55012 21.4808C8.39774 21.3284 8.31214 21.1217 8.31214 20.9062V13.5938C8.31214 13.3783 8.39774 13.1716 8.55012 13.0192C8.70249 12.8669 8.90915 12.7812 9.12464 12.7812C9.34013 12.7812 9.54679 12.8669 9.69916 13.0192C9.85154 13.1716 9.93714 13.3783 9.93714 13.5938V20.9062ZM13.5934 20.9062C13.5934 21.1217 13.5078 21.3284 13.3554 21.4808C13.203 21.6331 12.9964 21.7188 12.7809 21.7188C12.5654 21.7188 12.3587 21.6331 12.2064 21.4808C12.054 21.3284 11.9684 21.1217 11.9684 20.9062V13.5938C11.9684 13.3783 12.054 13.1716 12.2064 13.0192C12.3587 12.8669 12.5654 12.7812 12.7809 12.7812C12.9964 12.7812 13.203 12.8669 13.3554 13.0192C13.5078 13.1716 13.5934 13.3783 13.5934 13.5938V20.9062Z" fill="#FFBD4A"/>
<path d="M9.125 22.125C8.80177 22.125 8.49177 21.9966 8.26321 21.768C8.03465 21.5395 7.90625 21.2295 7.90625 20.9062V13.5938C7.90625 13.2705 8.03465 12.9605 8.26321 12.732C8.49177 12.5034 8.80177 12.375 9.125 12.375C9.44823 12.375 9.75823 12.5034 9.98679 12.732C10.2153 12.9605 10.3438 13.2705 10.3438 13.5938V20.9062C10.3437 21.2295 10.2153 21.5395 9.98679 21.768C9.75823 21.9966 9.44823 22.125 9.125 22.125ZM9.125 13.1875C9.01726 13.1875 8.91392 13.2303 8.83774 13.3065C8.76155 13.3827 8.71875 13.486 8.71875 13.5938V20.9062C8.71875 21.014 8.76155 21.1173 8.83774 21.1935C8.91392 21.2697 9.01726 21.3125 9.125 21.3125C9.23274 21.3125 9.33608 21.2697 9.41226 21.1935C9.48845 21.1173 9.53125 21.014 9.53125 20.9062V13.5938C9.53125 13.486 9.48845 13.3827 9.41226 13.3065C9.33608 13.2303 9.23274 13.1875 9.125 13.1875Z" fill="white"/>
<path d="M12.7812 22.125C12.458 22.125 12.148 21.9966 11.9195 21.768C11.6909 21.5395 11.5625 21.2295 11.5625 20.9062V13.5938C11.5625 13.2705 11.6909 12.9605 11.9195 12.732C12.148 12.5034 12.458 12.375 12.7812 12.375C13.1045 12.375 13.4145 12.5034 13.643 12.732C13.8716 12.9605 14 13.2705 14 13.5938V20.9062C14 21.2295 13.8716 21.5395 13.643 21.768C13.4145 21.9966 13.1045 22.125 12.7812 22.125ZM12.7812 13.1875C12.6735 13.1875 12.5702 13.2303 12.494 13.3065C12.4178 13.3827 12.375 13.486 12.375 13.5938V20.9062C12.375 21.014 12.4178 21.1173 12.494 21.1935C12.5702 21.2697 12.6735 21.3125 12.7812 21.3125C12.889 21.3125 12.9923 21.2697 13.0685 21.1935C13.1447 21.1173 13.1875 21.014 13.1875 20.9062V13.5938C13.1875 13.486 13.1447 13.3827 13.0685 13.3065C12.9923 13.2303 12.889 13.1875 12.7812 13.1875Z" fill="white"/>
<path d="M5.46875 22.125C5.14552 22.125 4.83552 21.9966 4.60696 21.768C4.3784 21.5395 4.25 21.2295 4.25 20.9062V13.5938C4.25 13.2705 4.3784 12.9605 4.60696 12.732C4.83552 12.5034 5.14552 12.375 5.46875 12.375C5.79198 12.375 6.10198 12.5034 6.33054 12.732C6.5591 12.9605 6.6875 13.2705 6.6875 13.5938V20.9062C6.6875 21.2295 6.5591 21.5395 6.33054 21.768C6.10198 21.9966 5.79198 22.125 5.46875 22.125ZM5.46875 13.1875C5.36101 13.1875 5.25767 13.2303 5.18149 13.3065C5.1053 13.3827 5.0625 13.486 5.0625 13.5938V20.9062C5.0625 21.014 5.1053 21.1173 5.18149 21.1935C5.25767 21.2697 5.36101 21.3125 5.46875 21.3125C5.57649 21.3125 5.67983 21.2697 5.75601 21.1935C5.8322 21.1173 5.875 21.014 5.875 20.9062V13.5938C5.875 13.486 5.8322 13.3827 5.75601 13.3065C5.67983 13.2303 5.57649 13.1875 5.46875 13.1875Z" fill="white"/>
<path d="M4.02123 5.46876C3.96528 5.46886 3.90992 5.45723 3.85873 5.43463C3.76007 5.39149 3.68258 5.31095 3.64327 5.21071C3.60396 5.11046 3.60606 4.99871 3.64911 4.90001C3.83868 4.46564 4.15077 4.09597 4.54717 3.83621C4.94358 3.57646 5.40711 3.43791 5.88104 3.43751C6.09816 3.43758 6.3142 3.46793 6.52292 3.52769C6.71633 3.07919 7.02215 2.68816 7.41084 2.39238C7.79952 2.0966 8.25793 1.90608 8.74176 1.83922C9.22559 1.77236 9.71848 1.83142 10.1728 2.0107C10.6271 2.18999 11.0276 2.48342 11.3354 2.86266C11.6617 2.70597 12.0191 2.62474 12.381 2.62501C13.0273 2.62576 13.6468 2.88281 14.1038 3.33977C14.5607 3.79672 14.8178 4.41627 14.8185 5.06251C14.8185 5.17025 14.7757 5.27358 14.6996 5.34977C14.6234 5.42596 14.52 5.46876 14.4123 5.46876C14.3046 5.46876 14.2012 5.42596 14.125 5.34977C14.0488 5.27358 14.006 5.17025 14.006 5.06251C14.0067 4.76518 13.9256 4.47341 13.7715 4.21908C13.6175 3.96476 13.3965 3.75769 13.1328 3.62051C12.869 3.48333 12.5725 3.42133 12.2759 3.44129C11.9792 3.46124 11.6938 3.56239 11.4507 3.73366C11.4051 3.76568 11.3534 3.78797 11.2988 3.79915C11.2443 3.81033 11.188 3.81017 11.1335 3.79866C11.079 3.78701 11.0275 3.76435 10.982 3.73207C10.9366 3.6998 10.8983 3.65859 10.8694 3.61098C10.6635 3.26712 10.3603 2.99201 9.99815 2.8204C9.63598 2.64879 9.23106 2.58838 8.83457 2.64681C8.43808 2.70524 8.0678 2.87989 7.77053 3.14868C7.47325 3.41747 7.26232 3.76835 7.16439 4.15698C7.14953 4.2156 7.12178 4.27016 7.08315 4.31668C7.04452 4.36321 6.99599 4.40052 6.9411 4.4259C6.88621 4.45129 6.82635 4.46409 6.76588 4.46339C6.70541 4.46269 6.64586 4.4485 6.59158 4.42185C6.39528 4.32564 6.18156 4.2701 5.96326 4.25858C5.74496 4.24706 5.52658 4.2798 5.32125 4.35482C5.11592 4.42984 4.92788 4.5456 4.76842 4.69514C4.60897 4.84468 4.48139 5.02491 4.39336 5.22501C4.36175 5.29742 4.30972 5.35905 4.24362 5.40234C4.17753 5.44564 4.10024 5.46872 4.02123 5.46876Z" fill="white"/>
<path d="M12.7857 11.5625C12.7186 11.5623 12.6517 11.5569 12.5854 11.5462C12.2969 11.4906 12.0371 11.3354 11.8515 11.1076C11.6658 10.8799 11.5661 10.5941 11.5698 10.3003V7.5C11.5698 7.39226 11.527 7.28892 11.4508 7.21274C11.3746 7.13655 11.2713 7.09375 11.1636 7.09375C11.0558 7.09375 10.9525 7.13655 10.8763 7.21274C10.8001 7.28892 10.7573 7.39226 10.7573 7.5C10.7576 7.72106 10.7129 7.93986 10.6257 8.14302C10.5386 8.34618 10.4109 8.52942 10.2505 8.68153C10.0901 8.83364 9.90034 8.95143 9.69284 9.02768C9.48535 9.10393 9.26448 9.13705 9.04375 9.125C8.61944 9.09357 8.22335 8.90057 7.93711 8.58577C7.65088 8.27096 7.49632 7.85835 7.50528 7.43297C7.50518 7.34357 7.46962 7.25787 7.4064 7.19466C7.34319 7.13145 7.25749 7.09589 7.16809 7.09578H3.84984C3.7421 7.09578 3.63877 7.13858 3.56258 7.21477C3.4864 7.29096 3.44359 7.39429 3.44359 7.50203L3.4375 8.72078C3.43737 8.77413 3.42673 8.82693 3.40619 8.87617C3.38565 8.92541 3.35561 8.97012 3.3178 9.00775C3.27998 9.04538 3.23512 9.07519 3.18578 9.09548C3.13644 9.11577 3.08359 9.12615 3.03024 9.12602C2.97689 9.12588 2.92409 9.11524 2.87485 9.0947C2.82561 9.07416 2.7809 9.04413 2.74327 9.00631C2.70564 8.96849 2.67583 8.92363 2.65554 8.87429C2.63524 8.82495 2.62487 8.7721 2.625 8.71875L2.63109 7.5C2.63163 7.17712 2.76027 6.86765 2.98878 6.63953C3.21728 6.41141 3.52696 6.28328 3.84984 6.28328H7.16891C7.47369 6.28371 7.76587 6.40498 7.98138 6.62049C8.1969 6.83601 8.31816 7.12818 8.31859 7.43297C8.31255 7.64932 8.38827 7.86 8.53065 8.02301C8.67303 8.18602 8.87162 8.28939 9.08681 8.3125C9.19718 8.31852 9.30761 8.30197 9.41136 8.26384C9.51511 8.22571 9.60998 8.16682 9.69018 8.09077C9.77038 8.01471 9.83422 7.92309 9.8778 7.82151C9.92137 7.71993 9.94376 7.61053 9.9436 7.5C9.9436 7.17677 10.072 6.86677 10.3006 6.63821C10.5291 6.40965 10.8391 6.28125 11.1623 6.28125C11.4856 6.28125 11.7956 6.40965 12.0241 6.63821C12.2527 6.86677 12.3811 7.17677 12.3811 7.5V10.3003C12.3773 10.4015 12.4086 10.5008 12.4696 10.5816C12.5305 10.6625 12.6175 10.7198 12.7158 10.7439C12.7743 10.7544 12.8344 10.7519 12.8918 10.7366C12.9493 10.7213 13.0026 10.6936 13.0482 10.6554C13.0938 10.6173 13.1304 10.5696 13.1555 10.5157C13.1806 10.4619 13.1936 10.4032 13.1936 10.3438V7.43094C13.194 7.12615 13.3153 6.83398 13.5308 6.61846C13.7463 6.40295 14.0385 6.28168 14.3433 6.28125H14.4123C14.7356 6.28125 15.0456 6.40965 15.2741 6.63821C15.5027 6.86677 15.6311 7.17677 15.6311 7.5L15.625 8.71875C15.6229 8.82619 15.5792 8.92861 15.503 9.00441C15.4268 9.0802 15.3242 9.12344 15.2167 9.125C15.1093 9.12446 15.0065 9.08142 14.9308 9.0053C14.855 8.92917 14.8125 8.82614 14.8125 8.71875L14.8186 7.5C14.8181 7.39261 14.775 7.2898 14.6989 7.21405C14.6228 7.1383 14.5197 7.09578 14.4123 7.09578H14.3433C14.2539 7.09589 14.1682 7.13145 14.105 7.19466C14.0418 7.25787 14.0062 7.34357 14.0061 7.43297V10.3438C14.0061 10.667 13.8777 10.977 13.6491 11.2055C13.4206 11.4341 13.1106 11.5625 12.7873 11.5625H12.7857Z" fill="white"/>
<path d="M25.7427 9.3H30.6067C31.5347 9.3 32.2813 9.556 32.8467 10.068C33.412 10.5693 33.6947 11.236 33.6947 12.068C33.6947 12.6867 33.5293 13.22 33.1987 13.668C32.868 14.1053 32.4093 14.4093 31.8227 14.58C32.516 14.7507 33.0547 15.0867 33.4387 15.588C33.8333 16.0787 34.0307 16.692 34.0307 17.428C34.0307 18.3773 33.716 19.1293 33.0867 19.684C32.4573 20.228 31.604 20.5 30.5267 20.5H25.7427V9.3ZM30.5107 14.148C31.108 14.148 31.5933 13.9667 31.9667 13.604C32.3507 13.2307 32.5427 12.756 32.5427 12.18C32.5427 11.5827 32.356 11.108 31.9827 10.756C31.62 10.404 31.1293 10.228 30.5107 10.228H26.8947V14.148H30.5107ZM30.2547 19.572C31.108 19.572 31.7587 19.38 32.2067 18.996C32.6547 18.612 32.8787 18.0573 32.8787 17.332C32.8787 16.6067 32.6493 16.052 32.1907 15.668C31.7427 15.2733 31.0973 15.076 30.2547 15.076H26.8947V19.572H30.2547ZM39.1822 19.812C39.6408 19.812 40.0462 19.7427 40.3982 19.604C40.7502 19.4653 41.0755 19.2413 41.3742 18.932L42.0462 19.556C41.7048 19.94 41.2995 20.2227 40.8302 20.404C40.3608 20.5853 39.7902 20.676 39.1182 20.676C38.0942 20.676 37.2942 20.436 36.7182 19.956C36.1528 19.4653 35.8702 18.7827 35.8702 17.908V15.476C35.8702 14.6547 36.1475 14.0093 36.7022 13.54C37.2675 13.06 38.0408 12.82 39.0222 12.82C40.0248 12.82 40.7928 13.0707 41.3262 13.572C41.8702 14.0733 42.1422 14.7827 42.1422 15.7C42.1422 16.2867 42.0302 16.692 41.8062 16.916C41.5928 17.1293 41.1875 17.236 40.5902 17.236H36.9422V17.908C36.9422 18.548 37.1235 19.028 37.4862 19.348C37.8595 19.6573 38.4248 19.812 39.1822 19.812ZM39.0062 13.668C38.3662 13.668 37.8595 13.8387 37.4862 14.18C37.1235 14.5107 36.9422 14.964 36.9422 15.54V16.452H40.1422C40.5048 16.452 40.7502 16.3933 40.8782 16.276C41.0062 16.148 41.0702 15.9133 41.0702 15.572C41.0702 14.9747 40.8888 14.5107 40.5262 14.18C40.1635 13.8387 39.6568 13.668 39.0062 13.668ZM47.1353 19.812C47.5939 19.812 47.9993 19.7427 48.3513 19.604C48.7033 19.4653 49.0286 19.2413 49.3273 18.932L49.9993 19.556C49.6579 19.94 49.2526 20.2227 48.7833 20.404C48.3139 20.5853 47.7433 20.676 47.0713 20.676C46.0473 20.676 45.2473 20.436 44.6713 19.956C44.1059 19.4653 43.8233 18.7827 43.8233 17.908V15.476C43.8233 14.6547 44.1006 14.0093 44.6553 13.54C45.2206 13.06 45.9939 12.82 46.9753 12.82C47.9779 12.82 48.7459 13.0707 49.2793 13.572C49.8233 14.0733 50.0953 14.7827 50.0953 15.7C50.0953 16.2867 49.9833 16.692 49.7593 16.916C49.5459 17.1293 49.1406 17.236 48.5433 17.236H44.8953V17.908C44.8953 18.548 45.0766 19.028 45.4393 19.348C45.8126 19.6573 46.3779 19.812 47.1353 19.812ZM46.9593 13.668C46.3193 13.668 45.8126 13.8387 45.4393 14.18C45.0766 14.5107 44.8953 14.964 44.8953 15.54V16.452H48.0953C48.4579 16.452 48.7033 16.3933 48.8313 16.276C48.9593 16.148 49.0233 15.9133 49.0233 15.572C49.0233 14.9747 48.8419 14.5107 48.4793 14.18C48.1166 13.8387 47.6099 13.668 46.9593 13.668ZM55.6823 12.804C56.0769 12.804 56.4236 12.9 56.7223 13.092L56.4343 14.068C56.1249 13.8867 55.7836 13.796 55.4103 13.796C54.8876 13.796 54.4289 14.0413 54.0343 14.532C53.6396 15.0227 53.3569 15.7 53.1863 16.564V20.5H52.1143V14.34C52.1143 14.148 52.0769 13.9933 52.0023 13.876C51.9383 13.748 51.8103 13.604 51.6183 13.444L52.3383 12.804C52.6583 12.9853 52.8769 13.1933 52.9943 13.428C53.1223 13.652 53.1863 13.9667 53.1863 14.372V14.788C53.4316 14.1587 53.7676 13.6733 54.1943 13.332C54.6316 12.98 55.1276 12.804 55.6823 12.804ZM59.7878 10.228H56.1558V9.3H64.5718V10.228H60.9398V20.5H59.7878V10.228ZM66.7885 20.676C65.7859 20.676 65.0019 20.4253 64.4365 19.924C63.8819 19.412 63.6045 18.6973 63.6045 17.78V15.7C63.6045 14.7827 63.8819 14.0733 64.4365 13.572C65.0019 13.06 65.7859 12.804 66.7885 12.804C67.7912 12.804 68.5699 13.06 69.1245 13.572C69.6899 14.0733 69.9725 14.7827 69.9725 15.7V17.78C69.9725 18.6973 69.6899 19.412 69.1245 19.924C68.5699 20.4253 67.7912 20.676 66.7885 20.676ZM66.7885 19.812C67.4605 19.812 67.9779 19.636 68.3405 19.284C68.7139 18.932 68.9005 18.4307 68.9005 17.78V15.7C68.9005 15.0493 68.7139 14.548 68.3405 14.196C67.9779 13.844 67.4605 13.668 66.7885 13.668C66.1165 13.668 65.5939 13.844 65.2205 14.196C64.8579 14.548 64.6765 15.0493 64.6765 15.7V17.78C64.6765 18.4307 64.8579 18.932 65.2205 19.284C65.5939 19.636 66.1165 19.812 66.7885 19.812ZM75.8237 12.804C76.5277 12.804 77.125 12.9747 77.6157 13.316C78.1063 13.6467 78.4743 14.0893 78.7197 14.644C78.965 15.1987 79.0877 15.812 79.0877 16.484V16.996C79.0877 17.668 78.965 18.2813 78.7197 18.836C78.4743 19.3907 78.1063 19.8387 77.6157 20.18C77.125 20.5107 76.5277 20.676 75.8237 20.676C74.661 20.676 73.8183 20.26 73.2957 19.428V24.004H72.2237V14.34C72.2237 14.148 72.1863 13.9933 72.1117 13.876C72.0477 13.748 71.9197 13.604 71.7277 13.444L72.4317 12.804C72.709 12.964 72.9117 13.14 73.0397 13.332C73.1783 13.524 73.253 13.764 73.2637 14.052C73.829 13.22 74.6823 12.804 75.8237 12.804ZM78.0157 16.484C78.0157 15.6307 77.797 14.948 77.3597 14.436C76.9223 13.924 76.341 13.668 75.6157 13.668C74.997 13.668 74.501 13.812 74.1277 14.1C73.7543 14.388 73.477 14.82 73.2957 15.396V18.084C73.477 18.66 73.7543 19.092 74.1277 19.38C74.501 19.668 74.997 19.812 75.6157 19.812C76.341 19.812 76.9223 19.556 77.3597 19.044C77.797 18.532 78.0157 17.8493 78.0157 16.996V16.484ZM81.172 20.676C80.948 20.676 80.756 20.6013 80.596 20.452C80.4467 20.292 80.372 20.1 80.372 19.876C80.372 19.652 80.4467 19.46 80.596 19.3C80.756 19.14 80.948 19.06 81.172 19.06C81.396 19.06 81.5827 19.14 81.732 19.3C81.892 19.46 81.972 19.652 81.972 19.876C81.972 20.1 81.892 20.292 81.732 20.452C81.5827 20.6013 81.396 20.676 81.172 20.676ZM87.8073 12.804C88.2019 12.804 88.5486 12.9 88.8473 13.092L88.5593 14.068C88.2499 13.8867 87.9086 13.796 87.5353 13.796C87.0126 13.796 86.5539 14.0413 86.1593 14.532C85.7646 15.0227 85.4819 15.7 85.3113 16.564V20.5H84.2393V14.34C84.2393 14.148 84.2019 13.9933 84.1273 13.876C84.0633 13.748 83.9353 13.604 83.7433 13.444L84.4633 12.804C84.7833 12.9853 85.0019 13.1933 85.1193 13.428C85.2473 13.652 85.3113 13.9667 85.3113 14.372V14.788C85.5566 14.1587 85.8926 13.6733 86.3193 13.332C86.7566 12.98 87.2526 12.804 87.8073 12.804ZM96.4279 19.14C96.4279 19.332 96.4599 19.492 96.5239 19.62C96.5986 19.7373 96.7372 19.8813 96.9399 20.052L96.2199 20.676C95.8999 20.4947 95.6759 20.292 95.5479 20.068C95.4199 19.8333 95.3559 19.5133 95.3559 19.108V18.996C95.0892 19.54 94.7266 19.956 94.2679 20.244C93.8092 20.532 93.2706 20.676 92.6519 20.676C91.8732 20.676 91.2706 20.4467 90.8439 19.988C90.4172 19.5187 90.2039 18.8627 90.2039 18.02V12.98H91.2759V17.956C91.2759 18.5533 91.4199 19.012 91.7079 19.332C92.0066 19.652 92.4226 19.812 92.9559 19.812C93.5319 19.812 94.0279 19.604 94.4439 19.188C94.8706 18.772 95.1746 18.2013 95.3559 17.476V12.98H96.4279V19.14Z" fill="white"/>
</g>
</svg>
